# File created by Blade
# Date/Time:  Wed Apr 08 17:12:22 2015
#---------------------------------------------------------
:version 1.10
:name HOM
:units
  mass 1.0
  length 1.000000
  angle deg
:documentation
     Acclaim Skeleton File
:root
   axis xyz
   order TX TY TZ RX RY RZ
   position 0.000000 0.000000 0.000000
   orientation 0 0 0
:bonedata
   begin
      id 1
      name Spine_dum
      direction 0.000000 1.000000 0.000000
      length 5.893853
      axis 0.0 0.0 0.0 xyz
   end
   begin
      id 2
      name LeftUpLeg_dum
      direction 1.000000 0.000000 0.000000
      length 3.697939
      axis 0.0 0.0 0.0 xyz
   end
   begin
      id 3
      name RightUpLeg_dum
      direction -1.000000 0.000000 0.000000
      length 3.697939
      axis 0.0 0.0 0.0 xyz
   end
   begin
      id 4
      name Spine
      direction 0.000000 1.000000 0.000000
      length 0.000000
      axis 0.0 0.0 0.0 xyz
      dof rx ry rz
   end
   begin
      id 5
      name Spine_dum1
      direction 0.000000 1.000000 0.000000
      length 16.447146
      axis 0.0 0.0 0.0 xyz
   end
   begin
      id 6
      name Spine_dum2
      direction 0.000000 1.000000 0.000000
      length 10.900383
      axis 0.0 0.0 0.0 xyz
   end
   begin
      id 7
      name Spine_dum3
      direction 0.000000 1.000000 0.000000
      length 10.900383
      axis 0.0 0.0 0.0 xyz
   end
   begin
      id 8
      name Head
      direction 0.000000 1.000000 0.000000
      length 4.527550
      axis 0.0 0.0 0.0 xyz
      dof rx ry rz
   end
   begin
      id 9
      name LeftShoulder
      direction 1.000000 0.000000 0.000000
      length 8.219464
      axis 0.0 0.0 -90.0 xyz
      dof rx ry rz
   end
   begin
      id 10
      name LeftArm
      direction 1.000000 0.000000 0.000000
      length 11.094937
      axis 0.0 0.0 -90.0 xyz
      dof rx ry rz
   end
   begin
      id 11
      name LeftForeArm
      direction 1.000000 0.000000 0.000000
      length 9.103875
      axis 0.0 0.0 -90.0 xyz
      dof ry rz rx
   end
   begin
      id 12
      name LeftHand
      direction 0.000000 0.000000 0.000000
      length 0.000000
      axis 0.0 0.0 -90.0 xyz
      dof rx ry rz
   end
   begin
      id 13
      name LeftHand_dum1
      direction 0.000000 0.000000 0.000000
      length 0.000000
      axis 0.0 0.0 -90.0 xyz
   end
   begin
      id 14
      name LeftHand_dum2
      direction 1.000000 0.000000 0.000000
      length 3.937000
      axis 0.0 0.0 -90.0 xyz
   end
   begin
      id 15
      name LeftHandThumb1
      direction 0.000000 0.000000 1.000000
      length 3.937000
      axis 0.0 0.0 -90.0 xyz
      dof rx rz ry
   end
   begin
      id 16
      name RightShoulder
      direction -1.000000 0.000000 0.000000
      length 8.219464
      axis 0.0 0.0 90.0 xyz
      dof rx ry rz
   end
   begin
      id 17
      name RightArm
      direction -1.000000 0.000000 0.000000
      length 11.094937
      axis 0.0 0.0 90.0 xyz
      dof rx ry rz
   end
   begin
      id 18
      name RightForeArm
      direction -1.000000 0.000000 0.000000
      length 9.103875
      axis 0.0 0.0 90.0 xyz
      dof ry rz rx
   end
   begin
      id 19
      name RightHand
      direction 0.000000 0.000000 0.000000
      length 0.000000
      axis 0.0 0.0 90.0 xyz
      dof rx ry rz
   end
   begin
      id 20
      name RightHand_dum1
      direction 0.000000 0.000000 0.000000
      length 0.000000
      axis 0.0 0.0 90.0 xyz
   end
   begin
      id 21
      name RightHand_dum2
      direction -1.000000 0.000000 0.000000
      length 3.937000
      axis 0.0 0.0 90.0 xyz
   end
   begin
      id 22
      name RightHandThumb1
      direction 0.000000 0.000000 1.000000
      length 3.937000
      axis 0.0 0.0 90.0 xyz
      dof rx rz ry
   end
   begin
      id 23
      name LeftUpLeg
      direction 0.000000 -1.000000 0.000000
      length 16.181467
      axis 0.0 0.0 0.0 xyz
      dof rx ry rz
   end
   begin
      id 24
      name LeftLeg
      direction 0.000000 -1.000000 0.000000
      length 16.501392
      axis 0.0 0.0 0.0 xyz
      dof rx ry rz
   end
   begin
      id 25
      name LeftFoot
      direction 0.000000 -0.258819 0.965926
      length 6.408245
      axis 15.0 0.0 0.0 xyz
      dof rx ry rz
   end
   begin
      id 26
      name LeftToeBase
      direction 0.000000 0.000000 1.000000
      length 2.952750
      axis 0.0 0.0 0.0 xyz
      dof rx ry rz
   end
   begin
      id 27
      name RightUpLeg
      direction 0.000000 -1.000000 0.000000
      length 16.181467
      axis 0.0 0.0 0.0 xyz
      dof rx ry rz
   end
   begin
      id 28
      name RightLeg
      direction 0.000000 -1.000000 0.000000
      length 16.501392
      axis 0.0 0.0 0.0 xyz
      dof rx ry rz
   end
   begin
      id 29
      name RightFoot
      direction 0.000000 -0.258819 0.965926
      length 6.408245
      axis 15.0 0.0 0.0 xyz
      dof rx ry rz
   end
   begin
      id 30
      name RightToeBase
      direction 0.000000 0.000000 1.000000
      length 2.952750
      axis 0.0 0.0 0.0 xyz
      dof rx ry rz
   end
:hierarchy
   begin
      root Spine_dum LeftUpLeg_dum RightUpLeg_dum
      Spine_dum Spine
      LeftUpLeg_dum LeftUpLeg
      RightUpLeg_dum RightUpLeg
      Spine Spine_dum1 Spine_dum2 Spine_dum3
      Spine_dum1 Head
      Spine_dum2 LeftShoulder
      Spine_dum3 RightShoulder
      LeftShoulder LeftArm
      LeftArm LeftForeArm
      LeftForeArm LeftHand
      LeftHand LeftHand_dum1 LeftHand_dum2
      LeftHand_dum1 LeftHandThumb1
      RightShoulder RightArm
      RightArm RightForeArm
      RightForeArm RightHand
      RightHand RightHand_dum1 RightHand_dum2
      RightHand_dum1 RightHandThumb1
      LeftUpLeg LeftLeg
      LeftLeg LeftFoot
      LeftFoot LeftToeBase
      RightUpLeg RightLeg
      RightLeg RightFoot
      RightFoot RightToeBase
   end

# File created by Blade
# Date/Time:  Wed Apr 08 17:12:12 2015
# Frame Rate: 120.000 fps
#------------------------------------------------------
:FULLY-SPECIFIED
:DEGREES
713
root 3.476481 36.783823 6.992233 50.441832 -77.442748 -76.479199
Spine 33.293783 5.042595 6.842806
Head 1.828159 10.905745 10.149923
LeftShoulder -7.647702 17.803240 13.765194
LeftArm 18.826353 25.219631 -75.267648
LeftForeArm 25.121488 -0.000000 21.854253
LeftHand -13.044239 -0.000000 -11.432602
LeftHandThumb1 -26.253704 0.000000 33.147579
RightShoulder -27.684246 -48.722685 15.229749
RightArm 57.935078 -20.114907 51.986349
RightForeArm 7.323771 -0.000000 17.981077
RightHand -1.169856 -0.000000 12.936161
RightHandThumb1 -24.326973 -0.000000 -32.862282
LeftUpLeg 33.144150 24.721117 22.037663
LeftLeg 9.037161 -0.000000 -0.000000
LeftFoot -15.060673 2.978551 -16.769182
LeftToeBase 1.095608 -0.000000 -0.000000
RightUpLeg -73.001055 -15.917402 10.207199
RightLeg 132.479921 -0.000000 -0.000000
RightFoot 13.149884 -3.658907 13.548181
RightToeBase -10.984600 -0.000000 0.000000
714
root 3.494752 36.785830 6.993225 51.718545 -77.407940 -77.583938
Spine 33.150964 5.027872 6.907860
Head 1.805739 10.314169 10.173855
LeftShoulder -7.630607 17.751041 13.822279
LeftArm 18.848198 25.446510 -75.299688
LeftForeArm 25.185769 -0.000000 22.048344
LeftHand -12.940317 0.000000 -11.586954
LeftHandThumb1 -26.253704 0.000000 33.147579
RightShoulder -27.752433 -48.718698 15.279751
RightArm 57.866776 -19.949101 52.156380
RightForeArm 7.637608 -0.000000 18.036669
RightHand -1.225719 -0.000000 12.734167
RightHandThumb1 -24.326973 -0.000000 -32.862282
LeftUpLeg 32.928760 24.822005 21.968652
LeftLeg 9.006297 -0.000000 -0.000000
LeftFoot -15.231698 3.569828 -16.320225
LeftToeBase 1.397301 -0.000000 -0.000000
RightUpLeg -73.155035 -16.200059 10.227032
RightLeg 132.482565 -0.000000 -0.000000
RightFoot 13.183515 -3.589953 13.577922
RightToeBase -10.970205 -0.000000 0.000000
715
root 3.508481 36.787609 6.992578 53.058745 -77.361387 -78.858516
Spine 33.131237 5.032317 7.025514
Head 1.726560 9.672644 10.191366
LeftShoulder -7.580163 17.732808 13.892821
LeftArm 18.892479 25.616966 -75.354676
LeftForeArm 25.363121 0.000000 22.310951
LeftHand -12.828639 -0.000000 -11.675570
LeftHandThumb1 -26.253704 0.000000 33.147579
RightShoulder -27.734233 -48.691976 15.222064
RightArm 57.746898 -19.762846 52.474265
RightForeArm 7.805326 -0.000000 18.031158
RightHand -1.136453 -0.000000 12.645195
RightHandThumb1 -24.326973 -0.000000 -32.862282
LeftUpLeg 32.851317 24.912731 22.003560
LeftLeg 8.982196 -0.000000 -0.000000
LeftFoot -15.312103 3.987072 -16.128407
LeftToeBase 1.326404 -0.000000 -0.000000
RightUpLeg -73.194165 -16.452156 10.246791
RightLeg 132.494088 -0.000000 -0.000000
RightFoot 13.243854 -3.527810 13.560085
RightToeBase -10.888147 -0.000000 0.000000
716
root 3.519979 36.786693 6.991490 54.500018 -77.332405 -80.260055
Spine 33.143155 5.089274 7.146337
Head 1.632451 8.978004 10.205826
LeftShoulder -7.514881 17.677864 13.988132
LeftArm 18.929451 25.850943 -75.397984
LeftForeArm 25.509585 -0.000000 22.589414
LeftHand -12.757912 -0.000000 -11.715332
LeftHandThumb1 -26.253704 0.000000 33.147579
RightShoulder -27.767901 -48.673493 15.229034
RightArm 57.674395 -19.583354 52.684895
RightForeArm 8.035733 -0.000000 18.056823
RightHand -1.189348 -0.000000 12.579967
RightHandThumb1 -24.326973 -0.000000 -32.862282
LeftUpLeg 32.819173 25.000213 22.039479
LeftLeg 8.951961 -0.000000 -0.000000
LeftFoot -15.400233 4.375029 -16.003779
LeftToeBase 1.232480 -0.000000 -0.000000
RightUpLeg -73.211746 -16.653524 10.238940
RightLeg 132.531808 -0.000000 -0.000000
RightFoot 13.320351 -3.445438 13.615475
RightToeBase -10.954003 -0.000000 0.000000
717
root 3.530868 36.782383 6.992255 56.067486 -77.380854 -81.781340
Spine 33.159658 5.210114 7.188331
Head 1.544691 8.249007 10.275226
LeftShoulder -7.488709 17.660885 14.065375
LeftArm 19.012398 26.095309 -75.382556
LeftForeArm 25.511845 -0.000000 22.924214
LeftHand -12.744204 0.000000 -11.532820
LeftHandThumb1 -26.253704 0.000000 33.147579
RightShoulder -27.789027 -48.666500 15.255172
RightArm 57.658127 -19.426210 52.786031
RightForeArm 8.404463 -0.000000 18.057000
RightHand -1.161569 -0.000000 12.549295
RightHandThumb1 -24.326973 -0.000000 -32.862282
LeftUpLeg 32.804438 25.088649 21.988142
LeftLeg 8.914688 -0.000000 -0.000000
LeftFoot -15.499404 4.779181 -15.927028
LeftToeBase 1.152868 -0.000000 -0.000000
RightUpLeg -73.261791 -16.781414 10.163698
RightLeg 132.602652 -0.000000 -0.000000
RightFoot 13.394454 -3.379915 13.665087
RightToeBase -10.955291 -0.000000 0.000000
718
root 3.541110 36.778210 6.991010 57.774464 -77.412938 -83.471010
Spine 33.212217 5.351792 7.263578
Head 1.460173 7.486722 10.328930
LeftShoulder -7.446935 17.618405 14.136024
LeftArm 19.098352 26.410540 -75.309112
LeftForeArm 25.492268 -0.000000 23.258542
LeftHand -12.677987 -0.000000 -11.461976
LeftHandThumb1 -26.253704 0.000000 33.147579
RightShoulder -27.784571 -48.640579 15.264553
RightArm 57.622372 -19.259244 52.909186
RightForeArm 8.620207 -0.000000 18.059752
RightHand -1.183389 -0.000000 12.565932
RightHandThumb1 -24.326973 -0.000000 -32.862282
LeftUpLeg 32.836951 25.184137 22.001552
LeftLeg 8.885138 -0.000000 -0.000000
LeftFoot -15.594486 5.102919 -15.896986
LeftToeBase 1.068851 -0.000000 -0.000000
RightUpLeg -73.283686 -16.869245 10.098904
RightLeg 132.680051 -0.000000 -0.000000
RightFoot 13.460882 -3.335829 13.658397
RightToeBase -10.877452 -0.000000 0.000000
